<svg width="21" height="26" viewBox="0 0 21 26" fill="none" xmlns="http://www.w3.org/2000/svg">
<path d="M20.0808 19.9826C19.7218 20.856 19.2967 21.66 18.8043 22.3992C18.133 23.4069 17.5834 24.1044 17.1598 24.4917C16.5032 25.1275 15.7997 25.4531 15.0464 25.4716C14.5056 25.4716 13.8534 25.3096 13.0942 24.9809C12.3325 24.6537 11.6325 24.4917 10.9925 24.4917C10.3212 24.4917 9.60128 24.6537 8.83123 24.9809C8.06002 25.3096 7.43874 25.4809 6.96373 25.4979C6.24132 25.5303 5.52125 25.1954 4.80251 24.4917C4.34376 24.0704 3.76997 23.3482 3.08259 22.3251C2.34508 21.2326 1.73875 19.9656 1.26374 18.5212C0.75502 16.9611 0.5 15.4503 0.5 13.9877C0.5 12.3123 0.843837 10.8673 1.53254 9.65636C2.07379 8.68371 2.79386 7.91644 3.69508 7.35319C4.59629 6.78994 5.57006 6.50291 6.61872 6.48454C7.19251 6.48454 7.94497 6.67142 8.88004 7.03869C9.81247 7.4072 10.4112 7.59408 10.6737 7.59408C10.8699 7.59408 11.535 7.37557 12.6625 6.93993C13.7288 6.53593 14.6287 6.36865 15.3659 6.43455C17.3636 6.60429 18.8644 7.43343 19.8625 8.92722C18.0758 10.067 17.1921 11.6634 17.2097 13.7113C17.2258 15.3065 17.7754 16.6339 18.8556 17.6879C19.3451 18.1771 19.8918 18.5552 20.5 18.8237C20.3681 19.2264 20.2289 19.6122 20.0808 19.9826ZM15.4993 1.00014C15.4993 2.25043 15.0654 3.41782 14.2007 4.49834C13.1572 5.78287 11.895 6.52513 10.5262 6.408C10.5088 6.25801 10.4987 6.10014 10.4987 5.93425C10.4987 4.73398 10.9949 3.44945 11.8762 2.39917C12.3162 1.8674 12.8758 1.42524 13.5544 1.07252C14.2315 0.725057 14.872 0.532905 15.4744 0.5C15.4919 0.667144 15.4993 0.834298 15.4993 1.00013V1.00014Z" fill="#151515"/>
</svg>
