<svg width="173" height="182" viewBox="0 0 173 182" fill="none" xmlns="http://www.w3.org/2000/svg">
<path d="M125.351 24.9939H47.3438V145.145H125.351V24.9939Z" fill="white"/>
<path d="M128.004 147.776H44.7129V22.3674H128.004V147.776ZM49.9967 142.514H122.742V27.6293H49.9748L49.9967 142.514Z" fill="#ADADC2"/>
<path d="M125.351 70.4348H47.3438V73.092H125.351V70.4348Z" fill="#ADADC2"/>
<path d="M125.351 50.6237H47.3438V53.281H125.351V50.6237Z" fill="#ADADC2"/>
<path d="M103.997 30.0278V71.2196H106.409V30.0278H103.997Z" fill="#ADADC2"/>
<path d="M85.1417 30.0278V71.2196H87.5534V30.0278H85.1417Z" fill="#ADADC2"/>
<path d="M66.2866 30.0278V71.2196H68.6983V30.0278H66.2866Z" fill="#ADADC2"/>
<path d="M130.236 21.9245H42.459V31.545H130.236V21.9245Z" fill="#ADADC2"/>
<path d="M130.236 21.9245H42.459V28.6334H130.236V21.9245Z" fill="#151515"/>
<path d="M133.555 17.1141H39.144V26.7346H133.555V17.1141Z" fill="#ADADC2"/>
<path d="M44.7129 31.5493H5.7135V147.776H44.7129V31.5493Z" fill="#EBEBF0"/>
<path d="M41.2576 35.4432H9.16882V37.583H41.2576V35.4432Z" fill="#ADADC2"/>
<path d="M41.2576 39.3808H9.16882V41.5206H41.2576V39.3808Z" fill="#ADADC2"/>
<path d="M41.2576 43.3185H9.16882V45.4583H41.2576V43.3185Z" fill="#ADADC2"/>
<path d="M41.2576 47.2517H9.16882V49.3915H41.2576V47.2517Z" fill="#ADADC2"/>
<path d="M41.2576 51.1894H9.16882V53.3292H41.2576V51.1894Z" fill="#ADADC2"/>
<path d="M41.2576 55.127H9.16882V57.2668H41.2576V55.127Z" fill="#ADADC2"/>
<path d="M41.2576 59.0646H9.16882V61.2045H41.2576V59.0646Z" fill="#ADADC2"/>
<path d="M41.2576 63.0023H9.16882V65.1421H41.2576V63.0023Z" fill="#ADADC2"/>
<path d="M41.2576 66.9399H9.16882V69.0798H41.2576V66.9399Z" fill="#ADADC2"/>
<path d="M41.2576 70.8776H9.16882V73.0175H41.2576V70.8776Z" fill="#ADADC2"/>
<path d="M41.2576 74.8109H9.16882V76.9507H41.2576V74.8109Z" fill="#ADADC2"/>
<path d="M41.2576 78.7485H9.16882V80.8884H41.2576V78.7485Z" fill="#ADADC2"/>
<path d="M41.2576 86.6238H9.16882V88.7637H41.2576V86.6238Z" fill="#ADADC2"/>
<path d="M41.2576 90.5614H9.16882V92.7012H41.2576V90.5614Z" fill="#ADADC2"/>
<path d="M41.2576 94.4991H9.16882V96.6389H41.2576V94.4991Z" fill="#ADADC2"/>
<path d="M41.2576 98.4368H9.16882V100.577H41.2576V98.4368Z" fill="#ADADC2"/>
<path d="M41.2576 102.37H9.16882V104.51H41.2576V102.37Z" fill="#ADADC2"/>
<path d="M41.2576 106.308H9.16882V108.447H41.2576V106.308Z" fill="#ADADC2"/>
<path d="M41.2576 110.245H9.16882V112.385H41.2576V110.245Z" fill="#ADADC2"/>
<path d="M41.2576 114.183H9.16882V116.323H41.2576V114.183Z" fill="#ADADC2"/>
<path d="M41.2576 118.121H9.16882V120.26H41.2576V118.121Z" fill="#ADADC2"/>
<path d="M41.2576 122.058H9.16882V124.198H41.2576V122.058Z" fill="#ADADC2"/>
<path d="M41.2576 125.996H9.16882V128.136H41.2576V125.996Z" fill="#ADADC2"/>
<path d="M41.2576 129.934H9.16882V132.073H41.2576V129.934Z" fill="#ADADC2"/>
<path d="M41.2576 133.867H9.16882V136.007H41.2576V133.867Z" fill="#ADADC2"/>
<path d="M41.2576 137.804H9.16882V139.944H41.2576V137.804Z" fill="#ADADC2"/>
<path d="M41.2576 141.742H9.16882V143.882H41.2576V141.742Z" fill="#ADADC2"/>
<path d="M166.982 31.5493H127.982V147.776H166.982V31.5493Z" fill="#EBEBF0"/>
<path d="M163.526 35.4432H131.438V37.583H163.526V35.4432Z" fill="#ADADC2"/>
<path d="M163.526 39.3808H131.438V41.5206H163.526V39.3808Z" fill="#ADADC2"/>
<path d="M163.526 43.3185H131.438V45.4583H163.526V43.3185Z" fill="#ADADC2"/>
<path d="M163.526 47.2517H131.438V49.3915H163.526V47.2517Z" fill="#ADADC2"/>
<path d="M163.526 51.1894H131.438V53.3292H163.526V51.1894Z" fill="#ADADC2"/>
<path d="M163.526 55.127H131.438V57.2668H163.526V55.127Z" fill="#ADADC2"/>
<path d="M163.526 59.0646H131.438V61.2045H163.526V59.0646Z" fill="#ADADC2"/>
<path d="M163.526 63.0023H131.438V65.1421H163.526V63.0023Z" fill="#ADADC2"/>
<path d="M163.526 66.9399H131.438V69.0798H163.526V66.9399Z" fill="#ADADC2"/>
<path d="M163.526 70.8776H131.438V73.0175H163.526V70.8776Z" fill="#ADADC2"/>
<path d="M163.526 74.8109H131.438V76.9507H163.526V74.8109Z" fill="#ADADC2"/>
<path d="M163.526 78.7485H131.438V80.8884H163.526V78.7485Z" fill="#ADADC2"/>
<path d="M163.526 86.6238H131.438V88.7637H163.526V86.6238Z" fill="#ADADC2"/>
<path d="M163.526 90.5614H131.438V92.7012H163.526V90.5614Z" fill="#ADADC2"/>
<path d="M163.526 94.4991H131.438V96.6389H163.526V94.4991Z" fill="#ADADC2"/>
<path d="M163.526 98.4368H131.438V100.577H163.526V98.4368Z" fill="#ADADC2"/>
<path d="M163.526 102.37H131.438V104.51H163.526V102.37Z" fill="#ADADC2"/>
<path d="M163.526 106.308H131.438V108.447H163.526V106.308Z" fill="#ADADC2"/>
<path d="M163.526 110.245H131.438V112.385H163.526V110.245Z" fill="#ADADC2"/>
<path d="M163.526 114.183H131.438V116.323H163.526V114.183Z" fill="#ADADC2"/>
<path d="M163.526 118.121H131.438V120.26H163.526V118.121Z" fill="#ADADC2"/>
<path d="M163.526 122.058H131.438V124.198H163.526V122.058Z" fill="#ADADC2"/>
<path d="M163.526 125.996H131.438V128.136H163.526V125.996Z" fill="#ADADC2"/>
<path d="M163.526 129.934H131.438V132.073H163.526V129.934Z" fill="#ADADC2"/>
<path d="M163.526 133.867H131.438V136.007H163.526V133.867Z" fill="#ADADC2"/>
<path d="M163.526 137.804H131.438V139.944H163.526V137.804Z" fill="#ADADC2"/>
<path d="M163.526 141.742H131.438V143.882H163.526V141.742Z" fill="#ADADC2"/>
<path d="M109.704 119.108L114.994 128.842L114.558 105.207C114.459 103.706 113.952 102.26 113.093 101.025C112.728 100.471 112.301 99.9603 111.82 99.5035C111.197 98.9776 110.367 98.3117 109.797 98.0877C109.091 97.8076 109.069 96.8274 109.726 96.6562C110.382 96.4851 112.349 97.207 114.06 98.9621C115.772 100.717 115.386 96.9239 115.268 95.5391C115.149 94.1543 114.991 89.8601 115.389 89.4991C115.971 88.967 116.665 89.4991 116.749 90.8932C116.833 92.2873 117.371 96.4166 118.109 96.3388C118.846 96.261 118.134 89.2221 118.134 89.2221C118.134 89.2221 117.742 87.7347 118.579 87.6164C120.091 87.4017 120.275 94.9261 120.275 95.6449C120.275 96.1428 121.068 96.0868 121.04 95.5515C121.012 95.0163 120.187 88.5375 121.725 88.3073C122.904 88.1299 121.933 94.4966 122.848 95.7756C123.763 97.0545 123.091 90.8589 124.227 90.7345C124.647 90.6878 124.97 90.7127 124.849 94.3037C124.78 96.2361 123.915 99.1239 124.071 102.852L124.108 103.816C125.001 110.79 129.025 147.376 115.174 146.383C115.174 146.383 104.666 144.923 98.8249 125.798L109.704 119.108Z" fill="#F2BBAA"/>
<path d="M121.557 101.249C121.557 101.283 121.323 101.311 120.978 101.492C120.512 101.732 120.149 102.132 119.954 102.618L119.845 102.895L119.724 102.625C119.549 102.238 119.306 101.887 119.005 101.588C118.425 100.999 117.681 100.599 116.87 100.44C116.248 100.313 115.843 100.384 115.837 100.334C116.177 100.209 116.546 100.181 116.901 100.253C117.774 100.367 118.583 100.771 119.198 101.402C119.518 101.725 119.773 102.106 119.951 102.525H119.721C119.832 102.261 119.995 102.021 120.199 101.82C120.404 101.618 120.646 101.459 120.912 101.352C121.111 101.25 121.336 101.214 121.557 101.249Z" fill="#BF654E"/>
<path d="M46.5279 123.654L40.6435 134.739L35.2694 145.076H47.421L54.9516 129.557" fill="#F2BBAA"/>
<path d="M92.6167 145.076C91.4591 141.133 92.2184 140.511 93.4631 136.596L96.1393 128.195L101.996 136.845L114.446 126.838L110.317 117.524C102.603 100.042 90.09 101.284 90.09 101.284L74.1451 98.2403C74.1451 98.2403 63.9446 97.3068 57.3413 103.3C55.1879 105.254 45.4075 122.861 45.4075 122.861L57.4253 131.281L60.3722 126.256L61.1875 133.086C61.8285 136.82 61.7881 141.572 60.3722 145.076" fill="#CC3366"/>
<path d="M62.2737 141.936C62.2737 141.983 68.908 141.977 77.0859 141.936C85.2637 141.896 91.9012 141.812 91.9012 141.765C91.9012 141.718 85.2699 141.725 77.0859 141.765C68.9018 141.805 62.2737 141.893 62.2737 141.936Z" fill="#EBEBF0"/>
<path d="M75.7571 64.2189C76.1399 68.8306 69.9598 72.1042 70.5106 76.6972C70.6631 77.973 71.3259 79.3609 70.6506 80.4563C69.8416 81.7726 67.8718 81.4956 66.4341 82.0651C64.6635 82.7652 63.758 84.8968 64.0256 86.7795C64.2932 88.6621 65.5131 90.2896 66.9476 91.5436C69.2123 93.5236 72.0432 94.7398 75.0383 95.0195C76.4262 95.144 77.8763 95.0444 79.1148 94.3972C80.3533 93.7499 81.3335 92.5021 81.3397 91.108" fill="#151515"/>
<path d="M75.1471 100.885C75.9687 96.9488 76.7622 92.7945 76.7622 92.7945C76.7622 92.7945 71.8735 90.8776 72.2252 84.0472C72.5581 77.5311 76.6813 63.1981 76.6813 63.1981C84.6008 61.7698 92.8191 65.5787 96.7835 72.5336L89.5859 104.38C88.752 108.077 84.9182 110.292 80.9569 109.38C76.9644 108.428 74.3661 104.635 75.1471 100.885Z" fill="#F2BBAA"/>
<path d="M76.1461 74.9638C76.0981 75.1843 76.1378 75.4148 76.2569 75.6065C76.376 75.7982 76.565 75.936 76.784 75.9907C76.89 76.0223 77.0013 76.0324 77.1113 76.0203C77.2213 76.0082 77.3277 75.9741 77.4243 75.9202C77.521 75.8662 77.6058 75.7934 77.6738 75.7061C77.7418 75.6188 77.7915 75.5188 77.8202 75.4119C77.8696 75.193 77.8325 74.9636 77.7164 74.7715C77.6004 74.5795 77.4146 74.4399 77.1978 74.3819C77.0906 74.3483 76.9777 74.3368 76.8659 74.3482C76.7541 74.3595 76.6458 74.3934 76.5474 74.4478C76.4491 74.5022 76.3629 74.5759 76.2939 74.6646C76.2249 74.7533 76.1746 74.8551 76.1461 74.9638Z" fill="#151515"/>
<path d="M75.1908 74.1081C75.2718 74.2419 76.0155 73.9027 76.9272 74.1081C77.839 74.3135 78.4116 74.9016 78.5329 74.8114C78.592 74.7709 78.5329 74.55 78.2809 74.2761C77.9479 73.9202 77.5132 73.6757 77.0361 73.576C76.5627 73.4736 76.0689 73.5248 75.6265 73.7222C75.2966 73.8685 75.1597 74.049 75.1908 74.1081Z" fill="#151515"/>
<path d="M85.4597 77.1017C85.4103 77.3205 85.4475 77.55 85.5635 77.742C85.6795 77.934 85.8654 78.0736 86.0821 78.1317C86.1883 78.1628 86.2997 78.1724 86.4098 78.1599C86.5198 78.1474 86.6262 78.113 86.7227 78.0588C86.8192 78.0046 86.904 77.9316 86.9719 77.8442C87.0398 77.7568 87.0896 77.6567 87.1183 77.5498C87.1677 77.3313 87.1304 77.1023 87.0143 76.9107C86.8983 76.7192 86.7125 76.5802 86.496 76.5229C86.3899 76.4912 86.2786 76.4811 86.1686 76.4933C86.0587 76.5054 85.9522 76.5394 85.8556 76.5934C85.759 76.6473 85.6742 76.7201 85.6062 76.8074C85.5382 76.8947 85.4884 76.9948 85.4597 77.1017Z" fill="#151515"/>
<path d="M84.5261 76.2365C84.607 76.3672 85.3507 76.0281 86.2625 76.2365C87.1743 76.445 87.7437 77.0301 87.8682 76.9398C87.9273 76.9025 87.8682 76.6784 87.6161 76.4046C87.2818 76.0504 86.8477 75.8062 86.3714 75.7044C85.8968 75.6033 85.4025 75.6545 84.9586 75.8507C84.6164 75.9969 84.4763 76.1743 84.5261 76.2365Z" fill="#151515"/>
<path d="M79.6779 82.1335C79.6935 82.0806 79.1458 81.8627 78.2527 81.5516C78.0255 81.4769 77.8139 81.3866 77.8077 81.2186C77.8427 80.9733 77.9512 80.7444 78.1189 80.562L79.1831 78.9345C80.6768 76.61 81.8095 74.6807 81.713 74.6216C81.6166 74.5624 80.3345 76.3984 78.8439 78.7198L77.8046 80.3628C77.6009 80.6145 77.4909 80.9291 77.4934 81.2528C77.5098 81.3419 77.5464 81.4261 77.6003 81.4989C77.6543 81.5717 77.7241 81.6312 77.8046 81.6729C77.9257 81.7356 78.0544 81.7826 78.1873 81.8129C79.0898 82.0588 79.6623 82.1833 79.6779 82.1335Z" fill="#151515"/>
<path d="M76.7466 92.7945C79.8438 93.4967 83.075 93.3276 86.082 92.306C86.082 92.306 82.9702 96.3918 76.4883 94.3722L76.7466 92.7945Z" fill="#BF654E"/>
<path d="M79.5971 84.4113C79.8171 84.2299 80.0797 84.1075 80.3601 84.0558C80.6405 84.0041 80.9294 84.0247 81.1997 84.1157C81.3974 84.1755 81.5809 84.275 81.7387 84.4083C81.8966 84.5415 82.0255 84.7056 82.1177 84.8905C82.2082 85.0678 82.2418 85.2688 82.214 85.4659C82.1861 85.663 82.0982 85.8468 81.9621 85.9921C81.7825 86.1219 81.5686 86.1959 81.3472 86.2047C81.1258 86.2136 80.9067 86.1569 80.7173 86.0419C80.3191 85.8008 79.9723 85.4835 79.6967 85.1083C79.6112 85.0175 79.5427 84.9121 79.4944 84.7972C79.471 84.7392 79.4657 84.6756 79.479 84.6145C79.4923 84.5535 79.5237 84.4978 79.5691 84.4549" fill="#CC3366"/>
<path d="M82.2296 83.3315C82.0802 83.2911 81.8686 84.2806 80.8728 84.8065C79.8771 85.3324 78.8471 84.9963 78.8097 85.1177C78.7817 85.1768 79.0027 85.3604 79.4476 85.4662C80.026 85.598 80.6323 85.5209 81.1591 85.2484C81.6646 84.989 82.0488 84.5423 82.2296 84.0037C82.3478 83.6085 82.2981 83.3409 82.2296 83.3315Z" fill="#151515"/>
<path d="M92.8099 79.2892C93.5509 79.2876 94.2779 79.4912 94.9103 79.8773C95.5397 80.2704 95.9874 80.8971 96.155 81.6199C96.2863 82.3542 96.1328 83.111 95.7256 83.736C95.319 84.3549 94.7788 84.8749 94.1448 85.2576C93.7102 85.564 93.2088 85.7624 92.6823 85.8364C92.4187 85.8717 92.1505 85.841 91.9018 85.7471C91.653 85.6531 91.4315 85.4988 91.2571 85.2981" fill="#F2BBAA"/>
<path d="M92.3056 83.6582C92.2185 83.6582 92.4363 84.1592 93.1178 84.1218C93.4866 84.0758 93.8223 83.8856 94.0513 83.5928C94.322 83.2698 94.5261 82.8965 94.6519 82.4943C94.797 82.0686 94.7848 81.605 94.6177 81.1874C94.5484 81.0094 94.4391 80.8498 94.2983 80.7208C94.1575 80.5919 93.9889 80.497 93.8055 80.4437C93.1427 80.2881 92.8408 80.7051 92.9124 80.7331C92.984 80.7611 93.264 80.6148 93.6748 80.8109C94.0856 81.0069 94.3656 81.6386 94.1229 82.3325C93.8802 83.0265 93.4694 83.6488 93.0462 83.7328C92.623 83.8169 92.3492 83.6084 92.3056 83.6582Z" fill="#BF654E"/>
<path d="M78.6137 61.7387C78.1331 62.6843 77.9716 63.76 78.1533 64.8051C78.3351 65.8501 78.8503 66.8082 79.622 67.536C81.2028 68.9581 83.493 69.1603 85.5344 69.7547C87.5757 70.349 89.7633 71.852 89.67 73.9774C89.614 75.2657 88.6991 76.5042 89.0289 77.7489C89.4117 79.2083 91.2757 79.8307 91.8016 81.2435C92.6449 83.5151 89.558 85.5595 89.6949 87.9774C89.7758 89.412 90.9894 90.582 91.1232 92.0228C91.3161 94.0579 89.3183 96.2206 90.4293 97.9352C91.2819 99.2546 93.2672 99.0648 94.7235 98.4922C96.1799 97.9196 97.7731 97.1043 99.2326 97.6769C100.11 98.0192 100.729 98.8034 101.51 99.3324C102.224 99.8165 103.065 100.078 103.927 100.084C104.789 100.09 105.633 99.8404 106.353 99.3663C107.073 98.8922 107.636 98.2151 107.971 97.4209C108.306 96.6266 108.398 95.7508 108.235 94.9043C107.999 93.6596 107.245 92.5922 106.639 91.4813C106.032 90.3704 105.55 89.0728 105.914 87.8623C106.197 86.9287 106.925 86.2255 107.504 85.4475C108.083 84.6696 108.534 83.6458 108.16 82.7527C107.507 81.1812 105.002 81.3182 104.093 79.8805C102.848 77.9045 105.736 75.3902 104.996 73.1746C104.155 70.6664 99.7055 71.1145 98.8591 68.6064C98.548 67.6947 98.8591 66.6896 98.7751 65.7311C98.5542 63.5529 96.2546 62.137 94.0856 61.7605C91.9167 61.3839 89.6513 61.664 87.5228 61.1039C86.359 60.7927 85.2699 60.2419 84.1247 59.8592C82.9796 59.4764 81.71 59.2866 80.5773 59.7067C79.4446 60.1268 78.5391 61.3124 78.7662 62.5073" fill="#151515"/>
<path d="M79.5939 66.4127C78.9641 67.5026 78.0932 68.4338 77.0478 69.135C76.0025 69.8362 74.8105 70.2888 73.5632 70.4581C73.6037 68.7901 73.6908 67.1098 74.142 65.5072C74.5932 63.9046 75.4396 62.3518 76.7466 61.3343C78.0536 60.3167 79.902 59.8935 81.4516 60.5003" fill="#151515"/>
<path d="M78.5079 73.1091C78.4364 73.243 77.814 73.0438 77.0392 72.9567C76.2643 72.8695 75.6171 72.9131 75.5797 72.7668C75.5424 72.6206 76.2021 72.3219 77.1014 72.4277C78.0007 72.5335 78.5795 73.0033 78.5079 73.1091Z" fill="#151515"/>
<path d="M87.7468 74.5407C87.7188 74.5158 87.7219 74.4629 87.7468 74.3789V74.5189C87.3 74.2919 86.8279 74.1185 86.3403 74.0024C85.4814 73.8157 84.7533 74.0211 84.6941 73.881C84.6692 73.8157 84.8248 73.6694 85.1422 73.5698C85.562 73.4269 86.0128 73.4011 86.4461 73.4952C86.7328 73.5389 87.0077 73.6407 87.2538 73.7943C87.4999 73.9478 87.7121 74.1499 87.8775 74.3882L87.9335 74.5003L87.8869 74.5252C87.8246 74.5594 87.7717 74.5594 87.7468 74.5407Z" fill="#151515"/>
<path d="M92.9684 74.0022C93.674 74.0109 94.3793 73.9661 95.0782 73.8684C95.782 73.8253 96.4812 73.7264 97.1693 73.5728C96.4637 73.5643 95.7584 73.609 95.0595 73.7066C94.356 73.7522 93.657 73.8511 92.9684 74.0022Z" fill="#FF9933"/>
<path d="M93.9953 75.1816C94.5194 75.2958 95.0583 75.3253 95.5917 75.2688C96.127 75.2675 96.6586 75.1803 97.1663 75.0105C97.1663 74.9669 96.4537 75.0603 95.5823 75.107C94.711 75.1536 93.9984 75.1319 93.9953 75.1816Z" fill="#FF9933"/>
<path d="M78.5111 65.5071C78.5236 65.5738 78.5445 65.6386 78.5733 65.7C78.6493 65.8799 78.7545 66.046 78.8845 66.1917C79.404 66.6989 80.089 67.0016 80.8138 67.0443C81.3056 67.0993 81.8023 67.0909 82.2919 67.0194C82.8178 66.9541 83.3748 66.8576 83.9599 66.814C84.5675 66.7449 85.183 66.8119 85.7616 67.0101C86.3638 67.27 86.8843 67.6884 87.2677 68.2206C87.694 68.7496 88.0519 69.3159 88.472 69.8169C88.679 70.0645 88.9093 70.2917 89.1597 70.4953C89.4057 70.6854 89.6756 70.8423 89.9625 70.9621C90.4943 71.1598 91.0448 71.3026 91.6056 71.3884C92.0861 71.462 92.5597 71.5754 93.0214 71.7276C93.6905 71.9376 94.263 72.3788 94.6365 72.9723C94.7518 73.2017 94.8226 73.4509 94.845 73.7067C94.8538 73.6396 94.8538 73.5715 94.845 73.5044C94.8252 73.3099 94.7715 73.1203 94.6863 72.9443C94.3261 72.312 93.7456 71.8345 93.0557 71.6031C92.5896 71.4419 92.1107 71.3201 91.6242 71.239C91.0744 71.151 90.5353 71.006 90.0154 70.8065C89.454 70.5627 88.9629 70.1818 88.5871 69.6987C88.1764 69.2101 87.8216 68.6407 87.3891 68.1023C86.9839 67.5539 86.4391 67.1241 85.8114 66.8576C85.2113 66.6545 84.5735 66.5876 83.9443 66.6616C82.7525 66.7674 81.71 67.0505 80.8325 66.9292C80.1255 66.9051 79.4498 66.6318 78.925 66.1574C78.7541 65.9635 78.6144 65.744 78.5111 65.5071Z" fill="#EBADC2"/>
<path d="M104.479 99.6155C104.385 99.5957 104.293 99.5697 104.202 99.5377C103.951 99.4227 103.754 99.217 103.648 98.962C103.475 98.5592 103.466 98.1048 103.623 97.6955C103.773 97.2101 104.062 96.6935 104.283 96.0774C104.851 94.6414 105.005 93.0751 104.728 91.5559C104.539 90.662 104.149 89.8226 103.589 89.1007C103.288 88.722 102.937 88.3868 102.544 88.1049C102.135 87.8261 101.694 87.5973 101.23 87.4235C100.777 87.2617 100.356 87.0216 99.9857 86.714C99.8215 86.5574 99.6935 86.3668 99.6107 86.1556C99.5279 85.9443 99.4923 85.7175 99.5065 85.491C99.5594 84.5855 100.054 83.7546 100.039 82.8584C100.03 82.4231 99.9168 81.9962 99.7087 81.6137C99.5155 81.2625 99.277 80.9381 98.9992 80.6491C98.4977 80.1444 97.9634 79.6735 97.3998 79.2394C96.404 78.4179 95.7847 77.5248 95.6198 76.8215C95.5351 76.4571 95.5351 76.0782 95.6198 75.7137C95.6076 75.7361 95.5992 75.7602 95.5949 75.7853C95.5949 75.832 95.5607 75.9036 95.542 75.9969C95.4967 76.2761 95.5062 76.5615 95.57 76.8371C95.6766 77.2717 95.868 77.681 96.1333 78.0414C96.4796 78.5172 96.883 78.9488 97.3344 79.3266C97.8886 79.7638 98.4145 80.2356 98.909 80.7393C99.1762 81.0199 99.4063 81.3336 99.5936 81.6728C99.7881 82.0329 99.8947 82.4338 99.9048 82.8429C99.8889 83.2757 99.8081 83.7037 99.6652 84.1125C99.5086 84.551 99.4042 85.0064 99.354 85.4693C99.3375 85.7187 99.3761 85.9686 99.467 86.2015C99.5579 86.4343 99.6988 86.6443 99.8799 86.8167C100.263 87.1382 100.7 87.389 101.171 87.5573C101.623 87.7374 102.053 87.9704 102.45 88.2512C102.831 88.5243 103.173 88.8489 103.465 89.2159C104.012 89.9173 104.394 90.7331 104.582 91.6026C104.858 93.0949 104.718 94.6345 104.177 96.0525C103.966 96.6749 103.682 97.1821 103.536 97.6862C103.465 97.9201 103.432 98.1638 103.437 98.4081C103.446 98.6156 103.498 98.8189 103.589 99.0056C103.707 99.2688 103.922 99.4762 104.19 99.5844C104.282 99.6175 104.382 99.6282 104.479 99.6155Z" fill="#EBADC2"/>
<path d="M80.0509 137.283C80.0509 137.283 80.0993 137.315 80.1998 137.362C80.3002 137.408 80.4513 137.477 80.6528 137.55C81.2163 137.759 81.7973 137.924 82.3885 138.041C84.3596 138.441 86.3873 138.33 88.2266 137.721C90.0658 137.112 91.6378 136.032 92.7523 134.61C93.0916 134.187 93.3824 133.733 93.6207 133.255C93.7097 133.087 93.7626 132.939 93.7999 132.86C93.8209 132.813 93.8321 132.763 93.8332 132.711C93.8332 132.711 93.7254 132.893 93.5377 133.22C93.2747 133.679 92.9691 134.117 92.6238 134.53C91.4987 135.906 89.9445 136.953 88.1376 137.551C86.3306 138.15 84.3433 138.276 82.4008 137.915C81.8126 137.81 81.2319 137.666 80.6638 137.483C80.4636 137.405 80.259 137.339 80.0509 137.283Z" fill="#151515"/>
<path d="M63.755 102.421C63.7896 102.461 63.8287 102.492 63.8715 102.514L64.2247 102.741C64.6599 103.011 65.0646 103.356 65.4354 103.771C65.9951 104.365 66.334 105.38 66.4064 106.678C66.4652 108.158 66.121 110.096 65.5404 112.093C64.9598 114.09 64.2072 115.949 63.5902 117.656C62.9733 119.364 62.3937 120.886 61.9125 122.184C61.4313 123.481 61.0633 124.492 60.7894 125.237C60.6686 125.587 60.5722 125.865 60.4875 126.069C60.4485 126.165 60.4144 126.264 60.3857 126.363C60.4267 126.27 60.4657 126.175 60.5025 126.079C60.5758 125.867 60.6872 125.597 60.8208 125.252C61.1006 124.514 61.4927 123.48 61.973 122.209C62.4534 120.938 63.0351 119.385 63.6726 117.689C64.31 115.993 65.064 114.131 65.6395 112.101C66.215 110.071 66.5769 108.1 66.509 106.582C66.4761 105.868 66.356 105.241 66.1545 104.732C65.98 104.288 65.7601 103.917 65.4998 103.626C65.1228 103.216 64.7066 102.89 64.256 102.651C64.0994 102.562 63.9738 102.501 63.8887 102.458C63.847 102.437 63.8022 102.425 63.755 102.421Z" fill="#151515"/>
<path d="M30.1205 172.38H142.602L146.794 151.297H25.9285L30.1205 172.38Z" fill="#CC3366"/>
<path opacity="0.12" d="M25.933 151.297L27.4326 158.835H145.29L146.79 151.297H25.933Z" fill="#151515"/>
<path d="M23.8238 156.248L148.899 156.248V149.833L23.8238 149.833V156.248Z" fill="#CC3366"/>
<path d="M147.483 147.807C147.101 148.181 146.617 148.436 146.093 148.539C146.346 149.177 146.398 149.877 146.241 150.545C146.084 151.213 145.726 151.817 145.216 152.275C145.364 152.608 145.412 152.976 145.356 153.336C145.299 153.696 145.14 154.031 144.898 154.303C144.655 154.574 144.339 154.77 143.988 154.866C143.637 154.962 143.265 154.955 142.918 154.845C142.609 155.427 142.181 155.938 141.663 156.345C141.144 156.752 140.546 157.045 139.907 157.207C139.267 157.368 138.602 157.394 137.952 157.283C137.302 157.171 136.683 156.925 136.134 156.559C135.844 157.077 135.43 157.515 134.93 157.835C134.43 158.155 133.858 158.346 133.266 158.392C132.674 158.438 132.08 158.337 131.536 158.099C130.992 157.86 130.516 157.491 130.149 157.024C129.015 157.847 127.619 158.226 126.224 158.09C124.83 157.953 123.534 157.31 122.581 156.283C122.054 156.768 121.388 157.074 120.678 157.16C119.801 157.309 118.88 157.208 118.02 157.414C116.801 157.708 116.069 158.585 115.126 159.317C114.184 160.05 112.495 160.326 111.588 159.58C110.605 161.323 109.209 162.797 107.523 163.874C105.838 164.952 103.913 165.599 101.919 165.759C98.4944 166.022 94.2279 164.386 93.4167 160.878C92.5512 161.626 91.5194 162.155 90.4077 162.422C89.2959 162.69 88.1363 162.687 87.0256 162.415C85.915 162.143 84.8855 161.609 84.0232 160.858C83.1609 160.107 82.4907 159.161 82.0686 158.098C79.3806 159.221 75.899 159.971 74.1757 157.379C73.4522 158.215 72.4457 158.754 71.3492 158.893C70.2527 159.032 69.1435 158.762 68.2342 158.133C65.498 161.032 60.5913 164.531 57.3552 160.699C54.5839 163.185 49.9579 164.825 47.5725 161.137C45.2529 162.501 42.3106 163.728 39.7586 162.387C38.0748 161.51 36.9873 159.712 37.2636 157.875C36.6105 157.997 35.9358 157.926 35.3231 157.668C34.7104 157.411 34.1868 156.98 33.817 156.428C32.7208 156.949 32.0981 155.805 31.2343 155.073C29.5724 153.648 27.3756 154.687 25.6435 153.468C22.8372 151.499 25.2489 148.351 27.4984 147.329C27.3955 146.618 27.4704 145.893 27.7163 145.219C27.9622 144.544 28.3715 143.941 28.9075 143.463C29.4435 142.985 30.0896 142.648 30.7879 142.481C31.4863 142.313 32.2151 142.322 32.9093 142.506C32.7461 141.399 32.9229 140.269 33.4162 139.265C33.9095 138.261 34.6961 137.431 35.6718 136.884C38.6623 135.2 42.1352 136.669 44.3276 138.958C45.4105 137.313 46.906 135.98 48.6649 135.093C50.4238 134.205 52.3845 133.795 54.3515 133.902C56.7983 134.034 60.0519 135.472 61.2358 137.752C62.042 137.289 62.9124 136.948 63.8186 136.739C65.5249 136.34 67.3085 136.419 68.9727 136.968C70.637 137.518 72.1173 138.516 73.2505 139.853C74.6999 139.317 76.2682 139.189 77.7855 139.481C79.3027 139.773 80.7111 140.475 81.8581 141.51C82.5633 140.53 83.4999 139.74 84.5845 139.21C85.6691 138.68 86.868 138.426 88.0744 138.472C89.2808 138.518 90.4571 138.861 91.4986 139.471C92.5402 140.082 93.4145 140.94 94.0437 141.971C95.194 140.63 96.6353 139.569 98.2576 138.87C99.88 138.171 101.641 137.852 103.405 137.936C105.17 138.021 106.892 138.507 108.44 139.358C109.988 140.21 111.321 141.403 112.338 142.848C114.486 139.046 118.818 138.827 122.971 139.291C124.286 139.432 125.163 139.423 126.356 138.875C126.795 138.678 127.172 138.392 127.606 138.204C128.511 137.8 129.477 137.551 130.465 137.467C132.452 137.292 134.446 137.72 136.187 138.695C136.954 139.134 137.739 140.239 138.476 140.541C139.401 140.918 141.107 140.379 142.172 140.519C144.084 140.778 146.119 141.677 147.36 143.216C148.417 144.575 148.855 146.522 147.483 147.807Z" fill="#234455"/>
<path d="M38.9167 146.022C39.7937 144.203 38.9167 140.949 36.6234 140.015C34.3301 139.081 31.208 140.853 30.6994 142.856C30.1907 144.86 32.3832 148.21 34.181 148.452C36.1893 148.706 38.2677 147.36 38.9167 146.022Z" fill="#CC3366"/>
<path opacity="0.32" d="M29.7391 143.339C31.3659 144.733 34.067 145.97 36.277 145.878C35.4126 146.944 34.43 147.909 33.3478 148.754C33.2865 148.807 33.3478 148.921 33.4312 148.872C35.9656 147.184 38.4606 144.132 38.5703 140.98C38.5703 140.936 38.5133 140.936 38.5089 140.98C38.4014 141.863 38.1511 142.724 37.7678 143.527C36.8908 141.642 34.409 140.225 32.5059 139.778C32.4937 139.774 32.4804 139.775 32.4689 139.781C32.4574 139.787 32.4486 139.797 32.4446 139.809C32.4405 139.821 32.4414 139.834 32.4472 139.846C32.4529 139.857 32.463 139.866 32.4752 139.87C33.0576 140.106 33.6269 140.372 34.181 140.668C33.1286 141.598 32.3349 143.409 32.5717 144.799C31.6115 144.37 30.7001 143.839 29.8531 143.216C29.7961 143.15 29.6645 143.277 29.7391 143.339ZM36.3734 145.768C35.4632 145.705 34.5654 145.522 33.703 145.224C35.0057 145.299 36.2984 144.958 37.3951 144.251C37.0908 144.78 36.7494 145.287 36.3734 145.768ZM37.6889 143.672C37.6187 143.817 37.5442 143.957 37.4653 144.11C36.6089 144.545 35.6827 144.826 34.7291 144.939C35.6349 144.37 36.3414 143.533 36.7505 142.545C37.0967 142.892 37.4108 143.269 37.6889 143.672ZM36.6979 142.479C36.3491 143.095 35.9265 143.667 35.4394 144.181C35.2597 144.141 35.0843 144.089 34.9089 144.032C35.1921 143.819 35.4198 143.542 35.5725 143.223C35.7252 142.904 35.7984 142.552 35.7859 142.199C36.0314 142.229 36.2813 142.273 36.5357 142.326L36.6979 142.479ZM34.8299 142.146C34.91 142.274 34.9747 142.411 35.0229 142.554C35.063 142.731 35.0792 142.912 35.0711 143.093C34.7791 143.135 34.4819 143.123 34.1941 143.058C34.2609 142.755 34.3624 142.461 34.4967 142.181C34.6195 142.155 34.7203 142.15 34.8299 142.146ZM34.9922 142.146C35.237 142.145 35.4815 142.16 35.7245 142.19C35.6608 142.482 35.5667 142.768 35.4438 143.041L35.1062 143.089C35.1585 142.933 35.1753 142.768 35.1556 142.605C35.1359 142.441 35.0801 142.285 34.9922 142.146ZM35.3912 143.141C35.2274 143.455 35.0075 143.736 34.7422 143.97C34.5823 143.907 34.4257 143.835 34.2731 143.755C34.1923 143.564 34.1607 143.356 34.181 143.15C34.3707 143.239 34.5778 143.284 34.7871 143.282C34.9964 143.281 35.2027 143.232 35.3912 143.141ZM34.2511 140.699C34.9999 141.102 35.7001 141.589 36.3383 142.15C35.3457 141.822 34.2651 141.885 33.3171 142.326C33.5517 141.743 33.866 141.195 34.2511 140.699ZM33.2645 142.453C33.6347 142.312 34.0204 142.217 34.4134 142.168C34.2427 142.366 34.1234 142.602 34.066 142.857C34.0087 143.112 34.015 143.376 34.0845 143.628C33.7201 143.415 33.3964 143.139 33.1286 142.813C33.1724 142.699 33.2207 142.58 33.2645 142.462V142.453ZM33.0628 143.005C33.3455 143.354 33.6953 143.643 34.0914 143.855C34.4875 144.067 34.922 144.197 35.3693 144.238C35.1147 144.497 34.8374 144.734 34.5405 144.944C34.1547 144.996 33.7556 145.031 33.3347 145.071C33.1198 144.987 32.8962 144.904 32.6901 144.812C32.7569 144.202 32.8817 143.6 33.0628 143.014V143.005Z" fill="#151515"/>
<path d="M77.2364 145.343C78.1134 143.518 77.2364 140.269 74.9431 139.331C72.6498 138.392 69.5233 140.173 69.0147 142.172C68.506 144.172 70.7029 147.531 72.5226 147.763C74.5221 148.013 76.5874 146.697 77.2364 145.343Z" fill="#CC3366"/>
<path opacity="0.32" d="M68.0588 142.659C69.6856 144.049 72.3823 145.29 74.5967 145.198C73.7323 146.265 72.7497 147.23 71.6675 148.074C71.6062 148.127 71.6675 148.237 71.7509 148.193C74.2853 146.505 76.7803 143.448 76.89 140.3C76.89 140.292 76.8867 140.284 76.881 140.278C76.8752 140.273 76.8674 140.269 76.8593 140.269C76.8511 140.269 76.8433 140.273 76.8376 140.278C76.8318 140.284 76.8286 140.292 76.8286 140.3C76.7205 141.184 76.4703 142.044 76.0875 142.848C75.2106 140.962 72.7287 139.546 70.8256 139.099C70.8134 139.094 70.8001 139.095 70.7886 139.101C70.7771 139.107 70.7683 139.117 70.7643 139.129C70.7602 139.141 70.7611 139.155 70.7669 139.166C70.7726 139.178 70.7827 139.187 70.795 139.191C71.3777 139.425 71.9471 139.692 72.5007 139.989C71.4483 140.918 70.6546 142.725 70.8914 144.115C69.9305 143.689 69.0189 143.16 68.1728 142.536C68.0938 142.47 67.9842 142.593 68.0588 142.659ZM74.6844 145.088C73.7739 145.024 72.876 144.84 72.014 144.54C73.3158 144.619 74.6086 144.278 75.7017 143.567C75.4015 144.099 75.0614 144.608 74.6844 145.088ZM75.9998 142.992C75.9297 143.137 75.8551 143.277 75.7762 143.431C74.9198 143.865 73.9937 144.146 73.04 144.26C73.9459 143.69 74.6523 142.854 75.0615 141.865C75.4127 142.21 75.7299 142.587 76.0086 142.992H75.9998ZM75.0045 141.795C74.6598 142.414 74.2384 142.987 73.7504 143.501C73.5706 143.461 73.3934 143.409 73.2198 143.347C73.503 143.135 73.7307 142.858 73.8834 142.539C74.0362 142.22 74.1094 141.868 74.0968 141.515C74.3423 141.544 74.5923 141.588 74.8466 141.646L75.0045 141.795ZM73.1409 141.466C73.219 141.595 73.2837 141.732 73.3338 141.874C73.3741 142.051 73.3903 142.232 73.382 142.413C73.0897 142.454 72.7926 142.44 72.5051 142.374C72.5731 142.071 72.6746 141.777 72.8076 141.497C72.9304 141.475 73.04 141.466 73.1496 141.466H73.1409ZM73.3031 141.466C73.5478 141.468 73.7923 141.483 74.0354 141.51C73.973 141.804 73.8774 142.089 73.7504 142.361C73.6408 142.361 73.5267 142.4 73.4171 142.413C73.4711 142.257 73.4897 142.09 73.4715 141.926C73.4533 141.761 73.3988 141.603 73.3119 141.462L73.3031 141.466ZM73.7021 142.466C73.5372 142.779 73.3174 143.06 73.0532 143.295C72.8932 143.231 72.7366 143.16 72.584 143.08C72.5036 142.889 72.472 142.681 72.4919 142.475C72.6832 142.564 72.892 142.609 73.1029 142.607C73.3139 142.604 73.5216 142.555 73.7109 142.462L73.7021 142.466ZM72.5621 140.024C73.3107 140.425 74.011 140.91 74.6493 141.471C73.6561 141.144 72.5755 141.208 71.6281 141.651C71.865 141.066 72.1823 140.517 72.5708 140.019L72.5621 140.024ZM71.5755 141.778C71.945 141.635 72.3309 141.539 72.7243 141.493C72.5536 141.69 72.4343 141.927 72.377 142.182C72.3196 142.436 72.3259 142.701 72.3954 142.953C72.035 142.739 71.7157 142.463 71.4527 142.137L71.5755 141.778ZM71.3738 142.33C71.6571 142.678 72.007 142.967 72.403 143.178C72.799 143.39 73.2332 143.52 73.6802 143.562C73.4245 143.821 73.1473 144.057 72.8515 144.268C72.4656 144.317 72.0666 144.356 71.6456 144.391H71.6237C71.4088 144.312 71.1852 144.229 70.9791 144.137C71.0551 143.524 71.1902 142.921 71.3825 142.335L71.3738 142.33Z" fill="#151515"/>
<path d="M106.475 153.608C108.457 153.17 110.478 150.49 109.816 148.114C109.154 145.737 105.83 144.347 103.936 145.172C102.042 145.996 100.739 149.789 101.66 151.359C102.686 153.099 105.024 153.915 106.475 153.608Z" fill="#CC3366"/>
<path opacity="0.32" d="M102.967 144.716C102.866 146.851 103.546 149.741 104.971 151.433C103.6 151.404 102.236 151.22 100.906 150.885C100.823 150.885 100.783 150.999 100.862 151.025C103.748 151.99 107.69 152.087 110.255 150.241C110.259 150.234 110.261 150.227 110.26 150.22C110.26 150.213 110.258 150.206 110.253 150.2C110.249 150.195 110.243 150.19 110.236 150.188C110.229 150.186 110.222 150.186 110.215 150.188C109.451 150.646 108.617 150.976 107.747 151.166C108.711 149.328 108.295 146.487 107.483 144.711C107.479 144.699 107.471 144.689 107.459 144.683C107.448 144.677 107.434 144.676 107.422 144.68C107.41 144.685 107.4 144.693 107.394 144.705C107.388 144.716 107.387 144.73 107.391 144.742C107.571 145.346 107.718 145.959 107.83 146.579C106.449 146.316 104.537 146.803 103.581 147.842C103.324 146.821 103.177 145.776 103.142 144.724C103.138 144.623 102.971 144.615 102.967 144.716ZM105.111 151.438C104.605 150.679 104.199 149.858 103.905 148.995C104.642 150.071 105.704 150.882 106.935 151.31C106.331 151.397 105.722 151.439 105.111 151.438ZM107.58 151.196C107.422 151.232 107.264 151.258 107.106 151.28C106.237 150.871 105.447 150.311 104.774 149.627C105.778 149.994 106.872 150.04 107.904 149.758C107.841 150.247 107.733 150.728 107.58 151.196ZM107.913 149.679C107.214 149.784 106.504 149.802 105.8 149.732C105.72 149.565 105.651 149.394 105.594 149.219C105.935 149.311 106.293 149.319 106.638 149.243C106.983 149.166 107.305 149.008 107.576 148.78C107.704 148.997 107.823 149.22 107.931 149.451C107.926 149.53 107.922 149.605 107.913 149.679ZM107.036 148C106.983 148.141 106.913 148.277 106.83 148.403C106.72 148.547 106.586 148.671 106.435 148.772C106.225 148.568 106.054 148.327 105.931 148.061C106.211 147.926 106.505 147.823 106.808 147.754L107.036 148ZM107.137 148.131C107.287 148.323 107.425 148.523 107.549 148.732C107.281 148.866 106.999 148.967 106.707 149.035L106.457 148.798C106.613 148.744 106.754 148.656 106.871 148.541C106.987 148.426 107.077 148.286 107.133 148.131H107.137ZM106.598 149.057C106.249 149.122 105.89 149.122 105.541 149.057C105.492 148.893 105.454 148.726 105.427 148.557C105.532 148.374 105.683 148.223 105.865 148.118C105.91 148.319 105.998 148.507 106.124 148.669C106.25 148.831 106.41 148.964 106.593 149.057H106.598ZM107.826 146.658C107.965 147.495 108.01 148.345 107.957 149.193C107.609 148.208 106.897 147.395 105.966 146.921C106.569 146.747 107.194 146.659 107.821 146.658H107.826ZM105.826 146.961C106.166 147.164 106.479 147.41 106.756 147.693C106.495 147.679 106.235 147.73 105.998 147.841C105.762 147.951 105.557 148.119 105.401 148.329C105.346 147.909 105.367 147.483 105.462 147.07L105.826 146.961ZM105.269 147.14C105.166 147.578 105.152 148.031 105.227 148.474C105.302 148.917 105.466 149.34 105.708 149.719C105.346 149.677 104.99 149.602 104.642 149.495C104.366 149.219 104.09 148.929 103.805 148.618C103.734 148.394 103.673 148.18 103.612 147.952C104.135 147.627 104.689 147.354 105.265 147.136L105.269 147.14Z" fill="#151515"/>
<path d="M136.735 148.776C134.758 148.338 132.732 145.658 133.394 143.282C134.056 140.905 137.38 139.515 139.274 140.344C141.168 141.173 142.471 144.957 141.55 146.527C140.528 148.267 138.187 149.083 136.735 148.776Z" fill="#CC3366"/>
<path opacity="0.32" d="M140.072 139.892C140.035 140.944 139.888 141.989 139.634 143.01C138.682 141.971 136.766 141.488 135.385 141.747C135.497 141.127 135.644 140.514 135.823 139.91C135.825 139.904 135.826 139.897 135.826 139.891C135.825 139.885 135.823 139.878 135.821 139.873C135.818 139.867 135.814 139.862 135.809 139.858C135.804 139.853 135.799 139.85 135.792 139.848C135.786 139.846 135.78 139.845 135.774 139.846C135.767 139.846 135.761 139.848 135.755 139.851C135.75 139.854 135.745 139.858 135.74 139.863C135.736 139.867 135.733 139.873 135.731 139.879C134.92 141.655 134.508 144.496 135.468 146.334C134.597 146.144 133.763 145.814 132.999 145.356C132.996 145.353 132.992 145.352 132.988 145.351C132.984 145.35 132.98 145.35 132.976 145.351C132.971 145.352 132.968 145.353 132.964 145.356C132.961 145.358 132.958 145.361 132.955 145.364C132.953 145.368 132.952 145.372 132.951 145.376C132.95 145.38 132.95 145.384 132.951 145.388C132.952 145.392 132.953 145.396 132.955 145.4C132.958 145.403 132.961 145.406 132.964 145.408C135.525 147.259 139.467 147.162 142.357 146.193C142.431 146.167 142.392 146.035 142.313 146.057C140.98 146.387 139.616 146.571 138.244 146.605C139.669 144.908 140.353 142.019 140.248 139.883C140.239 139.782 140.072 139.791 140.072 139.892ZM136.275 146.469C137.506 146.041 138.568 145.23 139.305 144.154C139.013 145.018 138.607 145.839 138.099 146.597C137.489 146.601 136.879 146.562 136.275 146.478V146.469ZM135.31 144.917C136.342 145.199 137.436 145.153 138.441 144.786C137.765 145.471 136.974 146.031 136.104 146.443C135.946 146.417 135.788 146.391 135.635 146.355C135.482 145.896 135.373 145.423 135.31 144.944V144.917ZM135.279 144.615C135.393 144.382 135.512 144.176 135.639 143.944C135.91 144.171 136.231 144.33 136.576 144.406C136.921 144.483 137.28 144.474 137.621 144.382C137.561 144.557 137.493 144.728 137.415 144.895C136.709 144.965 135.998 144.948 135.297 144.843C135.288 144.773 135.288 144.698 135.279 144.623V144.615ZM136.398 142.918C136.701 142.983 136.995 143.085 137.275 143.22C137.15 143.487 136.977 143.729 136.766 143.935C136.617 143.831 136.484 143.705 136.371 143.562C136.288 143.437 136.219 143.303 136.165 143.163C136.249 143.089 136.323 143.005 136.398 142.926V142.918ZM136.757 143.957C136.678 144.04 136.595 144.119 136.512 144.194C136.219 144.126 135.935 144.026 135.665 143.896C135.789 143.685 135.927 143.483 136.077 143.29C136.133 143.446 136.223 143.588 136.341 143.705C136.459 143.822 136.601 143.911 136.757 143.966V143.957ZM137.371 143.268C137.554 143.373 137.705 143.524 137.81 143.707C137.779 143.876 137.739 144.042 137.691 144.207C137.343 144.273 136.986 144.273 136.639 144.207C136.821 144.115 136.981 143.984 137.108 143.823C137.234 143.662 137.324 143.476 137.371 143.277V143.268ZM137.248 142.08C136.319 142.557 135.607 143.371 135.258 144.356C135.205 143.507 135.249 142.656 135.389 141.817C136.018 141.82 136.644 141.912 137.248 142.089V142.08ZM137.753 142.234C137.851 142.644 137.873 143.069 137.818 143.488C137.662 143.278 137.456 143.111 137.218 143C136.981 142.89 136.72 142.841 136.459 142.856C136.736 142.572 137.048 142.324 137.389 142.12C137.511 142.168 137.634 142.199 137.753 142.242V142.234ZM139.625 143.111C139.568 143.334 139.502 143.549 139.432 143.777C139.143 144.088 138.871 144.378 138.594 144.654C138.245 144.761 137.887 144.836 137.525 144.878C137.766 144.499 137.93 144.076 138.005 143.633C138.08 143.19 138.066 142.737 137.963 142.299C138.542 142.516 139.098 142.788 139.625 143.111Z" fill="#151515"/>
<path d="M54.7023 156.949C52.7248 156.533 50.7033 153.832 51.361 151.455C52.0188 149.079 55.3469 147.689 57.2412 148.517C59.1355 149.346 60.4422 153.135 59.5214 154.7C58.4953 156.445 56.1581 157.261 54.7023 156.949Z" fill="#CC3366"/>
<path opacity="0.32" d="M58.0393 148.066C58.0069 149.118 57.8599 150.163 57.6008 151.183C56.6492 150.144 54.7374 149.662 53.3562 149.921C53.4618 149.302 53.6008 148.691 53.7727 148.088C53.7774 148.075 53.777 148.062 53.7717 148.05C53.7663 148.038 53.7564 148.029 53.7442 148.024C53.732 148.019 53.7185 148.02 53.7065 148.025C53.6946 148.03 53.6853 148.04 53.6807 148.053C52.8651 149.828 52.4529 152.674 53.4176 154.507C52.5467 154.319 51.7127 153.988 50.9489 153.529C50.9138 153.529 50.8787 153.56 50.9094 153.582C53.4702 155.432 57.4166 155.336 60.3019 154.367C60.3808 154.341 60.3369 154.213 60.258 154.231C58.9279 154.565 57.5644 154.749 56.1932 154.779C57.6183 153.082 58.298 150.192 58.1971 148.061C58.2059 147.96 58.0436 147.969 58.0393 148.066ZM54.2419 154.643C55.4743 154.212 56.5372 153.4 57.2763 152.323C56.9833 153.187 56.5778 154.008 56.0704 154.766C55.459 154.776 54.8478 154.739 54.2419 154.656V154.643ZM53.2772 153.086C54.3088 153.37 55.4029 153.325 56.4081 152.959C55.7328 153.644 54.9415 154.204 54.0709 154.612L53.6017 154.529C53.4494 154.064 53.3408 153.585 53.2772 153.1V153.086ZM53.2465 152.788C53.3605 152.551 53.4789 152.328 53.6061 152.113C53.8767 152.34 54.1982 152.499 54.5433 152.575C54.8884 152.652 55.2468 152.644 55.5881 152.551C55.5293 152.725 55.4605 152.895 55.382 153.06C54.6782 153.132 53.9682 153.116 53.2685 153.012C53.2553 152.951 53.2553 152.876 53.2465 152.801V152.788ZM54.3515 151.083C54.6546 151.151 54.9488 151.254 55.2285 151.389C55.1024 151.653 54.9318 151.894 54.7243 152.1C54.5755 151.997 54.4425 151.873 54.3296 151.732C54.2429 151.607 54.1736 151.471 54.1235 151.328C54.22 151.262 54.2902 151.179 54.3515 151.083ZM54.7111 152.126L54.4655 152.359C54.1735 152.29 53.8898 152.19 53.6193 152.06C53.7465 151.851 53.8856 151.649 54.0358 151.455C54.0901 151.615 54.1804 151.76 54.2998 151.88C54.4192 151.999 54.5644 152.089 54.7243 152.144L54.7111 152.126ZM55.325 151.433C55.5069 151.539 55.658 151.69 55.7635 151.872C55.737 152.043 55.6975 152.211 55.6451 152.376C55.2972 152.44 54.9406 152.44 54.5927 152.376C54.7776 152.287 54.9404 152.157 55.0693 151.997C55.1982 151.837 55.29 151.651 55.3381 151.451L55.325 151.433ZM55.2022 150.245C54.2737 150.722 53.563 151.536 53.2159 152.521C53.1633 151.674 53.2075 150.823 53.3474 149.986C53.9846 149.986 54.6183 150.079 55.2285 150.263L55.2022 150.245ZM55.7109 150.398C55.8058 150.811 55.8266 151.237 55.7723 151.657C55.6165 151.446 55.4106 151.278 55.1732 151.167C54.9359 151.056 54.6745 151.006 54.4129 151.021C54.6918 150.74 55.004 150.494 55.3425 150.289L55.7109 150.398ZM57.5788 151.275C57.5218 151.503 57.4561 151.714 57.3903 151.942C57.3903 151.942 57.3903 151.942 57.3684 151.942C57.0833 152.253 56.8071 152.543 56.5308 152.819C56.1812 152.923 55.8232 152.996 55.4609 153.038C55.7026 152.66 55.8659 152.238 55.9413 151.796C56.0166 151.354 56.0023 150.901 55.8994 150.464C56.4893 150.681 57.0562 150.956 57.592 151.284L57.5788 151.275Z" fill="#151515"/>
<path d="M113.982 72.5678C112.826 70.854 112.201 68.8379 112.184 66.771C112.184 59.4263 120.252 53.4716 130.193 53.4716C140.133 53.4716 148.193 59.4263 148.193 66.771C148.193 74.1157 140.133 80.066 130.193 80.066C125.369 80.066 120.984 78.6716 117.77 76.3871L111.57 77.9657L113.982 72.5678Z" fill="white"/>
<path d="M120.3 63.918L121.501 64.6742H122.293C122.992 64.6742 123.517 64.7827 123.866 64.9998C124.216 65.2203 124.391 65.5494 124.391 65.987V68.6126C124.391 68.8752 124.501 69.0712 124.721 69.2007C124.938 69.3338 125.265 69.4003 125.702 69.4003H126.226C126.663 69.4003 126.99 69.3338 127.207 69.2007C127.427 69.0712 127.537 68.8752 127.537 68.6126V65.0628L126.62 64.4799V64.1438L127.842 62.5737L128.571 63.0253C128.784 63.1619 128.964 63.2301 129.111 63.2301H129.373C129.083 63.7553 128.85 64.0178 128.675 64.0178C128.504 64.0178 128.324 63.9583 128.135 63.8393L127.721 63.582L127.212 64.2331L128.455 65.0208V68.6126C128.455 69.0502 128.27 69.3793 127.899 69.5998C127.525 69.8169 126.968 69.9254 126.226 69.9254H125.702C124.957 69.9254 124.4 69.8169 124.029 69.5998C123.658 69.3793 123.473 69.0502 123.473 68.6126V65.987C123.473 65.7245 123.375 65.5284 123.179 65.3989C122.98 65.2658 122.685 65.1993 122.293 65.1993H121.507C121.115 65.1993 120.82 65.2658 120.62 65.3989C120.425 65.5284 120.327 65.7245 120.327 65.987V67.4311H120.589C120.893 67.4311 121.122 67.4959 121.276 67.6254C121.43 67.7584 121.507 67.9562 121.507 68.2188C121.507 68.3973 121.472 68.5671 121.402 68.7281C121.332 68.8892 121.227 69.038 121.087 69.1745L120.327 69.9254H119.409V65.987C119.409 65.5494 119.584 65.2203 119.933 64.9998C120.115 64.8878 120.346 64.8037 120.626 64.7477L119.671 64.1491V63.771L121.029 62.5737H121.239L122.283 63.2144C122.437 63.3089 122.601 63.3562 122.776 63.3562H123.075C122.875 63.8848 122.655 64.1491 122.414 64.1491C122.169 64.1491 121.928 64.0773 121.69 63.9338L120.862 63.4139L120.3 63.918ZM120.327 69.185L120.673 68.8437C120.774 68.7386 120.851 68.6354 120.903 68.5338C120.956 68.4288 120.982 68.3238 120.982 68.2188C120.982 68.1313 120.949 68.0665 120.883 68.0245C120.816 67.979 120.718 67.9562 120.589 67.9562H120.327V69.185Z" fill="#151515"/>
<path d="M126.258 70.7131C126.377 70.7131 126.468 70.7568 126.531 70.8444C126.59 70.9319 126.62 71.0632 126.62 71.2382C126.62 71.3432 126.595 71.457 126.546 71.5795C126.497 71.7021 126.429 71.8263 126.342 71.9524C126.251 72.0784 126.141 72.2044 126.011 72.3305C125.882 72.4565 125.737 72.5773 125.576 72.6928C125.576 72.8223 125.599 72.9186 125.644 72.9816C125.69 73.0481 125.756 73.0814 125.844 73.0814L126.541 72.5563L126.882 73.0814C127.025 73.0079 127.162 72.8171 127.291 72.509C127.42 72.2044 127.546 71.7826 127.669 71.2435C127.707 71.0649 127.772 70.9319 127.863 70.8444C127.95 70.7568 128.062 70.7131 128.198 70.7131C128.37 70.7131 128.457 70.7568 128.46 70.8444C128.46 70.9354 128.445 71.0667 128.413 71.2382C128.27 71.9769 128.055 72.544 127.768 72.9396C127.482 73.3317 127.125 73.5522 126.698 73.6012L126.405 73.0814L125.88 73.6012C125.517 73.6012 125.244 73.5347 125.062 73.4017C124.88 73.2722 124.789 73.0761 124.789 72.8136V72.2884C125.226 72.1064 125.555 71.9384 125.775 71.7843C125.992 71.6233 126.101 71.4763 126.101 71.3432C126.101 71.2732 126.013 71.2382 125.838 71.2382C125.838 71.0632 125.873 70.9319 125.943 70.8444C126.013 70.7568 126.118 70.7131 126.258 70.7131Z" fill="#151515"/>
<path d="M132.499 63.918L133.699 64.6742H134.491C135.191 64.6742 135.715 64.7827 136.065 64.9998C136.414 65.2203 136.589 65.5494 136.589 65.987V68.6126C136.589 68.8752 136.699 69.0712 136.919 69.2007C137.136 69.3338 137.463 69.4003 137.9 69.4003H138.425C138.862 69.4003 139.188 69.3338 139.405 69.2007C139.625 69.0712 139.736 68.8752 139.736 68.6126V65.0628L138.818 64.4799V64.1438L140.04 62.5737L140.769 63.0253C140.982 63.1619 141.162 63.2301 141.309 63.2301H141.571C141.281 63.7553 141.048 64.0178 140.874 64.0178C140.702 64.0178 140.522 63.9583 140.333 63.8393L139.919 63.582L139.41 64.2331L140.653 65.0208V68.6126C140.653 69.0502 140.468 69.3793 140.097 69.5998C139.723 69.8169 139.166 69.9254 138.425 69.9254H137.9C137.155 69.9254 136.598 69.8169 136.227 69.5998C135.857 69.3793 135.671 69.0502 135.671 68.6126V65.987C135.671 65.7245 135.573 65.5284 135.378 65.3989C135.178 65.2658 134.883 65.1993 134.491 65.1993H133.705C133.313 65.1993 133.018 65.2658 132.818 65.3989C132.623 65.5284 132.525 65.7245 132.525 65.987V67.4311H132.787C133.091 67.4311 133.32 67.4959 133.474 67.6254C133.628 67.7584 133.705 67.9562 133.705 68.2188C133.705 68.3973 133.67 68.5671 133.6 68.7281C133.53 68.8892 133.425 69.038 133.285 69.1745L132.525 69.9254H131.607V65.987C131.607 65.5494 131.782 65.2203 132.131 64.9998C132.313 64.8878 132.544 64.8037 132.824 64.7477L131.869 64.1491V63.771L133.227 62.5737H133.437L134.481 63.2144C134.635 63.3089 134.799 63.3562 134.974 63.3562H135.273C135.073 63.8848 134.853 64.1491 134.612 64.1491C134.367 64.1491 134.126 64.0773 133.888 63.9338L133.06 63.4139L132.499 63.918ZM132.525 69.185L132.871 68.8437C132.972 68.7386 133.049 68.6354 133.102 68.5338C133.154 68.4288 133.18 68.3238 133.18 68.2188C133.18 68.1313 133.147 68.0665 133.081 68.0245C133.014 67.979 132.916 67.9562 132.787 67.9562H132.525V69.185Z" fill="#151515"/>
<path d="M136.856 73.1129C137.031 72.9413 137.119 72.7908 137.119 72.6613C137.119 72.5878 137.031 72.551 136.856 72.551V73.1129ZM136.856 72.0259C137.119 72.0259 137.316 72.0784 137.449 72.1834C137.578 72.2884 137.643 72.446 137.643 72.656C137.643 72.9361 137.512 73.2074 137.25 73.47L136.856 73.8638H136.07V71.5008C136.07 71.1507 136.245 70.8881 136.594 70.7131C136.944 70.538 137.468 70.4505 138.168 70.4505C138.867 70.4505 139.391 70.538 139.741 70.7131C140.09 70.8881 140.265 71.1507 140.265 71.5008V73.8638H139.479V71.5008C139.479 71.3257 139.368 71.1944 139.148 71.1069C138.931 71.0194 138.605 70.9756 138.168 70.9756C137.731 70.9756 137.404 71.0194 137.187 71.1069C136.967 71.1944 136.856 71.3257 136.856 71.5008V72.0259Z" fill="#151515"/>
<path d="M136.463 60.7148C136.463 60.2597 136.587 59.9184 136.836 59.6908C137.087 59.4633 137.463 59.3495 137.963 59.3495C138.257 59.3495 138.578 59.4265 138.928 59.5806C139.274 59.7346 139.652 59.9621 140.061 60.2632V59.1605H140.659V61.2609H137.36C137.063 61.2609 136.839 61.2154 136.689 61.1244C136.538 61.0334 136.463 60.8969 136.463 60.7148ZM137.963 60.1739C137.764 60.1739 137.613 60.2177 137.512 60.3052C137.411 60.3997 137.36 60.5363 137.36 60.7148H139.699C139.461 60.5363 139.197 60.3997 138.907 60.3052C138.62 60.2177 138.306 60.1739 137.963 60.1739Z" fill="#151515"/>
<path d="M113.982 72.5677C112.854 70.9511 112.216 69.0439 112.144 67.0742C112.071 65.1045 112.568 63.1557 113.574 61.4607C114.577 59.7686 115.921 58.3037 117.52 57.1591C119.112 56.0062 120.874 55.1096 122.743 54.5019C124.606 53.8855 126.538 53.4997 128.496 53.353C130.455 53.2197 132.423 53.3198 134.358 53.6512C134.836 53.7477 135.327 53.8135 135.801 53.9406L137.222 54.3221L138.612 54.8132C139.077 54.9798 139.515 55.2035 139.967 55.3964C141.751 56.2328 143.382 57.3638 144.79 58.7421C146.216 60.1296 147.284 61.8418 147.903 63.7321C148.506 65.643 148.526 67.6901 147.96 69.6123C147.374 71.5135 146.332 73.2429 144.926 74.6505C143.544 76.0466 141.934 77.196 140.164 78.0488C138.394 78.9064 136.512 79.5102 134.573 79.8423C132.641 80.1896 130.674 80.3015 128.715 80.1755C126.757 80.0589 124.822 79.692 122.958 79.0837C121.087 78.478 119.321 77.5909 117.718 76.4527H117.801L111.588 77.9787L111.487 78.005L111.531 77.9129L113.982 72.5677ZM113.982 72.5677L111.614 77.9655L111.557 77.8998L117.748 76.273H117.792L117.832 76.2993C121.069 78.4614 124.839 79.6916 128.728 79.8554C130.662 79.9598 132.601 79.8303 134.503 79.4696C136.406 79.1441 138.254 78.5537 139.993 77.7156C141.731 76.8796 143.312 75.7508 144.667 74.3787C146.022 73.0158 147.024 71.3438 147.588 69.507C148.122 67.6647 148.097 65.7053 147.518 63.8768C146.922 62.0513 145.895 60.3966 144.523 59.0534C143.149 57.7026 141.557 56.5937 139.813 55.7735C139.375 55.585 138.936 55.3613 138.498 55.1991L137.138 54.7124L135.74 54.3309C135.275 54.2037 134.793 54.1423 134.323 54.0415C132.417 53.7131 130.479 53.6072 128.548 53.7258C126.611 53.8535 124.697 54.2172 122.848 54.8088C121.005 55.3839 119.264 56.2435 117.687 57.3565C116.101 58.4685 114.758 59.8918 113.741 61.5397C112.732 63.2057 112.212 65.1217 112.241 67.069C112.299 69.028 112.902 70.932 113.982 72.5677Z" fill="#151515"/>
</svg>
