<svg width="24" height="24" viewBox="0 0 24 24" fill="none" xmlns="http://www.w3.org/2000/svg">
<path fill-rule="evenodd" clip-rule="evenodd" d="M14.5309 12.8616C14.7977 12.8198 15.0701 12.8727 15.3055 13.0121C15.5408 13.1516 15.726 13.3697 15.8319 13.6323C16.0933 14.2813 16.045 14.986 15.8785 15.5718C15.7055 16.1782 15.3764 16.7749 14.9187 17.2924C13.9849 18.3468 12.5017 19.0928 10.5804 18.9906C10.3537 18.9786 10.1346 18.8999 9.94774 18.7632C9.76093 18.6266 9.61383 18.4374 9.52299 18.217L8.56749 15.8968L7.44985 16.2839C7.14229 16.3905 6.80733 16.3634 6.51866 16.2085C6.22999 16.0535 6.01126 15.7835 5.91058 15.4578C5.80991 15.132 5.83554 14.7773 5.98183 14.4716C6.12812 14.1659 6.38309 13.9342 6.69066 13.8276L8.86249 13.0753C9.15092 12.9753 9.46419 12.9927 9.74114 13.1242C10.0181 13.2556 10.2388 13.4917 10.3603 13.7863L11.4302 16.3833C12.1037 16.2937 12.5977 16.0272 12.9394 15.724L12.9106 15.7286C12.6254 15.7735 12.3345 15.71 12.0893 15.5493C11.8441 15.3887 11.6606 15.1413 11.5712 14.851L10.787 12.3046C10.6867 11.9787 10.7128 11.6239 10.8594 11.3184C11.0061 11.0128 11.2613 10.7815 11.569 10.6753C11.8767 10.569 12.2117 10.5966 12.5002 10.7519C12.7887 10.9072 13.0071 11.1775 13.1075 11.5034L13.5722 13.0121L14.5309 12.8616Z" fill="#151515"/>
<path d="M18.9999 10.5002C18.9999 11.1856 18.7428 11.8429 18.2852 12.3276C17.8275 12.8123 17.2068 13.0845 16.5596 13.0845C15.9124 13.0845 15.2918 12.8123 14.8341 12.3276C14.3765 11.8429 14.1194 11.1856 14.1194 10.5002C14.1194 9.81475 14.3765 9.15741 14.8341 8.67275C15.2918 8.18808 15.9124 7.9158 16.5596 7.9158C17.2068 7.9158 17.8275 8.18808 18.2852 8.67275C18.7428 9.15741 18.9999 9.81475 18.9999 10.5002Z" fill="#151515"/>
<path fill-rule="evenodd" clip-rule="evenodd" d="M7.60457 8.39874C7.58993 8.88115 7.38929 9.3159 6.99288 9.66163L6.58726 10.0148C6.44518 10.1383 6.40451 10.2486 6.39475 10.3192C6.38464 10.4026 6.40523 10.4869 6.45223 10.5547C6.55526 10.7155 6.82315 10.8855 7.23311 10.77C7.50425 10.6931 7.86378 10.6087 8.19024 10.7959C8.35184 10.8889 8.45758 11.0204 8.53025 11.129C8.59424 11.2249 8.65497 11.3392 8.70812 11.4391L8.71896 11.4592L8.73089 11.4816L9.61806 13.564L8.62894 14.0367L7.76238 12.0013C7.73379 11.9472 7.70432 11.8936 7.67399 11.8405C7.61964 11.8512 7.56572 11.8642 7.51239 11.8796C6.70222 12.1082 5.94357 11.8038 5.55638 11.2019C5.35469 10.8945 5.27094 10.5173 5.32212 10.1469C5.37743 9.75926 5.57861 9.40607 5.89856 9.12753L6.30364 8.77491C6.47392 8.62616 6.51676 8.49407 6.52056 8.36198C6.52598 8.19715 6.46904 7.96915 6.321 7.66535C6.17512 7.36671 5.96743 7.0451 5.72774 6.70052C5.63804 6.57191 5.54766 6.44384 5.4566 6.31631C5.30114 6.10103 5.14892 5.88315 5 5.66275L5.88609 5C6.0184 5.19871 6.15723 5.3934 6.30364 5.59843C6.39963 5.73281 6.49886 5.87179 6.60081 6.01882C6.84701 6.37316 7.09808 6.75508 7.28463 7.13871C7.469 7.5166 7.61813 7.9502 7.60457 8.39874Z" fill="#151515"/>
<path fill-rule="evenodd" clip-rule="evenodd" d="M12 22C17.5228 22 22 17.5228 22 12C22 6.47715 17.5228 2 12 2C6.47715 2 2 6.47715 2 12C2 17.5228 6.47715 22 12 22ZM12 20C16.4183 20 20 16.4183 20 12C20 7.58172 16.4183 4 12 4C7.58172 4 4 7.58172 4 12C4 16.4183 7.58172 20 12 20Z" fill="#151515"/>
</svg>
