<svg width="24" height="24" viewBox="0 0 24 24" fill="none" xmlns="http://www.w3.org/2000/svg">
<path fill-rule="evenodd" clip-rule="evenodd" d="M10.0562 13.8667C10.1646 13.9455 10.2558 14.0442 10.3248 14.1572C10.3938 14.2702 10.4392 14.3953 10.4584 14.5253C10.4775 14.6553 10.4701 14.7877 10.4365 14.9149C10.4029 15.0421 10.3437 15.1616 10.2625 15.2667L9.23123 16.6C9.13517 16.7242 9.01062 16.825 8.86742 16.8944C8.72423 16.9639 8.56633 17 8.40624 17H7.03124C6.75774 17 6.49544 16.8947 6.30204 16.7071C6.10865 16.5196 6 16.2652 6 16C6 15.7348 6.10865 15.4805 6.30204 15.2929C6.49544 15.1054 6.75774 15 7.03124 15H7.89061L8.61249 14.0667C8.69374 13.9616 8.79554 13.8731 8.91207 13.8062C9.0286 13.7393 9.15758 13.6953 9.29164 13.6767C9.4257 13.6582 9.56223 13.6654 9.69342 13.698C9.8246 13.7306 9.94789 13.7879 10.0562 13.8667Z" fill="#151515"/>
<path d="M17.5067 15.131H16.4053L16.2094 15.0437C15.7075 14.503 14.8949 13.3277 14.2139 12.924C13.9313 12.7547 13.6055 12.6656 13.2734 12.6667H11.3281L11.5296 17H13.1551C13.4255 16.9992 13.6923 16.9405 13.9365 16.828C14.1879 16.7117 14.4116 16.5459 14.5934 16.3413L14.7893 16.123C15.0365 16.3893 15.2647 17 15.6315 17H17.5527C17.783 17 17.9577 16.9017 18.1206 16.7263C18.2835 16.551 18.375 16.3133 18.375 16.0657C18.375 15.8177 18.2835 15.58 18.1206 15.405C17.9577 15.2297 17.737 15.131 17.5067 15.131ZM17.6875 10.1667C17.6875 10.7413 17.4521 11.2924 17.033 11.6987C16.614 12.1051 16.0457 12.3333 15.4531 12.3333C14.8605 12.3333 14.2922 12.1051 13.8732 11.6987C13.4541 11.2924 13.2187 10.7413 13.2187 10.1667C13.2187 9.59203 13.4541 9.04093 13.8732 8.6346C14.2922 8.22827 14.8605 8 15.4531 8C16.0457 8 16.614 8.22827 17.033 8.6346C17.4521 9.04093 17.6875 9.59203 17.6875 10.1667Z" fill="#151515"/>
<path fill-rule="evenodd" clip-rule="evenodd" d="M15.4528 11.6667C15.8631 11.6667 16.2565 11.5086 16.5466 11.2273C16.8367 10.946 16.9997 10.5645 16.9997 10.1667C16.9997 9.76884 16.8367 9.38731 16.5466 9.10601C16.2565 8.8247 15.8631 8.66667 15.4528 8.66667C15.0426 8.66667 14.6491 8.8247 14.359 9.10601C14.0689 9.38731 13.9059 9.76884 13.9059 10.1667C13.9059 10.5645 14.0689 10.946 14.359 11.2273C14.6491 11.5086 15.0426 11.6667 15.4528 11.6667ZM15.4528 12.3333C16.0454 12.3333 16.6137 12.1051 17.0327 11.6987C17.4518 11.2924 17.6872 10.7413 17.6872 10.1667C17.6872 9.59203 17.4518 9.04093 17.0327 8.6346C16.6137 8.22827 16.0454 8 15.4528 8C14.8602 8 14.2919 8.22827 13.8729 8.6346C13.4539 9.04093 13.2184 9.59203 13.2184 10.1667C13.2184 10.7413 13.4539 11.2924 13.8729 11.6987C14.2919 12.1051 14.8602 12.3333 15.4528 12.3333Z" fill="#151515"/>
<path fill-rule="evenodd" clip-rule="evenodd" d="M12 22C17.5228 22 22 17.5228 22 12C22 6.47715 17.5228 2 12 2C6.47715 2 2 6.47715 2 12C2 17.5228 6.47715 22 12 22ZM12 20C16.4183 20 20 16.4183 20 12C20 7.58172 16.4183 4 12 4C7.58172 4 4 7.58172 4 12C4 16.4183 7.58172 20 12 20Z" fill="#151515"/>
</svg>
