<svg width="24" height="24" viewBox="0 0 24 24" fill="none" xmlns="http://www.w3.org/2000/svg">
<g clip-path="url(#clip0_1_429)">
<path d="M17 12C14.24 12 12 14.24 12 17C12 19.76 14.24 22 17 22C19.76 22 22 19.76 22 17C22 14.24 19.76 12 17 12ZM16 19.5L13.5 17L14.205 16.295L16 18.085L19.795 14.29L20.5 15L16 19.5Z" fill="#151515"/>
<path fill-rule="evenodd" clip-rule="evenodd" d="M16 6H10V8H16V6ZM16 10H10V12H16V10ZM12.9996 14H10V16H12.1C12.25 15.2611 12.5629 14.5814 12.9996 14ZM18 12.1V4H4V18H12.1C12.25 18.7389 12.5629 19.4186 12.9996 20H2.9C2.4 20 2 19.5 2 19.1V2.9C2 2.4 2.4 2 2.9 2H19.1C19.5 2 20 2.4 20 2.9V12.9996C19.4186 12.5629 18.7389 12.25 18 12.1ZM8 6H6V8H8V6ZM8 10H6V12H8V10ZM8 14H6V16H8V14Z" fill="#151515"/>
</g>
<defs>
<clipPath id="clip0_1_429">
<rect width="24" height="24" fill="white"/>
</clipPath>
</defs>
</svg>
