<svg width="24" height="24" viewBox="0 0 24 24" fill="none" xmlns="http://www.w3.org/2000/svg">
<path fill-rule="evenodd" clip-rule="evenodd" d="M12.0002 9.19989C12.4614 9.19989 12.9038 9.03132 13.2299 8.73127C13.5561 8.43123 13.7393 8.02427 13.7393 7.59994C13.7393 7.17561 13.5561 6.76866 13.2299 6.46861C12.9038 6.16856 12.4614 6 12.0002 6C11.5389 6 11.0965 6.16856 10.7704 6.46861C10.4442 6.76866 10.261 7.17561 10.261 7.59994C10.261 8.02427 10.4442 8.43123 10.7704 8.73127C11.0965 9.03132 11.5389 9.19989 12.0002 9.19989ZM16.972 9.99346C17.03 10.1987 16.9971 10.4168 16.8804 10.5997C16.7638 10.7827 16.5729 10.9155 16.3498 10.969C15.5654 11.157 14.8519 11.301 14.1741 11.3994V13.9497L14.6024 17.1004C14.63 17.3027 14.5726 17.5071 14.4419 17.6717C14.3112 17.8364 14.1171 17.949 13.8992 17.9864C13.6813 18.0238 13.4561 17.9833 13.2697 17.8731C13.0832 17.763 12.9495 17.5914 12.8958 17.3936L12.0262 14.1937C12.009 14.1303 12.0002 14.0651 12.0002 13.9997C12.0001 14.0651 11.9914 14.1303 11.9741 14.1937L11.1045 17.3936C11.0509 17.5914 10.9171 17.763 10.7307 17.8731C10.5442 17.9833 10.319 18.0238 10.1011 17.9864C9.88325 17.949 9.68914 17.8364 9.55845 17.6717C9.42776 17.5071 9.37035 17.3027 9.39795 17.1004L9.82622 13.9497V11.389C9.15012 11.2898 8.44011 11.149 7.66053 10.9714C7.43665 10.9204 7.24397 10.7896 7.12489 10.6079C7.0058 10.4262 6.97006 10.2084 7.02552 10.0025C7.08099 9.7965 7.22312 9.61924 7.42065 9.50969C7.61817 9.40013 7.85492 9.36725 8.0788 9.41828C9.66056 9.77906 10.8436 9.95626 12.0036 9.96066C13.161 9.96466 14.3406 9.79706 15.9115 9.42068C16.0221 9.39418 16.1372 9.38797 16.2503 9.40241C16.3635 9.41686 16.4724 9.45167 16.571 9.50486C16.6695 9.55805 16.7556 9.62858 16.8245 9.71242C16.8934 9.79625 16.9437 9.89175 16.9724 9.99346H16.972Z" fill="#151515"/>
<path fill-rule="evenodd" clip-rule="evenodd" d="M12 22C17.5228 22 22 17.5228 22 12C22 6.47715 17.5228 2 12 2C6.47715 2 2 6.47715 2 12C2 17.5228 6.47715 22 12 22ZM12 20C16.4183 20 20 16.4183 20 12C20 7.58172 16.4183 4 12 4C7.58172 4 4 7.58172 4 12C4 16.4183 7.58172 20 12 20Z" fill="#151515"/>
</svg>
